<svg id="Слой_1" data-name="Слой 1" xmlns="http://www.w3.org/2000/svg" xmlns:xlink="http://www.w3.org/1999/xlink" viewBox="0 0 245 317"><defs><style>.cls-1{fill:#606060;}.cls-1,.cls-10,.cls-11,.cls-13,.cls-2,.cls-3,.cls-4,.cls-5,.cls-6,.cls-7,.cls-8,.cls-9{fill-rule:evenodd;}.cls-2{fill:#f0aa0a;}.cls-3{fill:#de9f0d;}.cls-4{fill:#2e2e2e;}.cls-5{fill:url(#GradientFill_2);}.cls-6{fill:#e4d2b1;}.cls-7{fill:#f1e8d6;}.cls-8{fill:url(#GradientFill_4);}.cls-9{fill:red;}.cls-10,.cls-13{fill:#fff;}.cls-11{fill:#636363;}.cls-12{fill:#b9e3ff;stroke:#5572be;stroke-miterlimit:22.93;stroke-width:0.57px;opacity:0.44;}.cls-13{opacity:0.36;}</style><linearGradient id="GradientFill_2" x1="107.77" y1="194.22" x2="22.02" y2="194.22" gradientTransform="matrix(-1, 0, 0, 1, 304.06, 0)" gradientUnits="userSpaceOnUse"><stop offset="0" stop-color="#202020"/><stop offset="0.02" stop-color="#2f2e2e"/><stop offset="0.06" stop-color="#414040"/><stop offset="0.11" stop-color="#504e4e"/><stop offset="0.18" stop-color="#5a5858"/><stop offset="0.29" stop-color="#605e5e"/><stop offset="1" stop-color="#615f5f"/></linearGradient><linearGradient id="GradientFill_4" x1="182.21" y1="101.36" x2="182.21" y2="196.17" gradientTransform="matrix(-1, 0, 0, 1, 304.06, 0)" gradientUnits="userSpaceOnUse"><stop offset="0" stop-color="#5c5c5c"/><stop offset="1" stop-color="#989398"/></linearGradient></defs><path class="cls-1" d="M160.89,140.75c-2.81.29-7.86,2.23-12.16,3.79s-7.86,2.74-11.26,3.64a54,54,0,0,1-8.95,1.69,9,9,0,0,1-5.72-1.26,44,44,0,0,1-7.91-5.59c-2.78-2.45-5.36-5.36-8.18-7.86a59.2,59.2,0,0,0-8.25-6,24,24,0,0,0-6.72-3,89.89,89.89,0,0,0-9.3-2c-2.68-.43-4.17-.46-5-.08a1.35,1.35,0,0,0-.64,1.89c.33.7,1.12,1.32,3.47,2.54s6.26,3,8,3.94,1.35.86-.54.37A97.28,97.28,0,0,0,78,130.57a83.91,83.91,0,0,0-16.09-1,104.28,104.28,0,0,0-16.67,2.06,82,82,0,0,0-10.69,3.1c-3.61,1.23-8.2,2.73-11.48,4.9A18.25,18.25,0,0,0,17,146.23c-.83,1.65-.53,2.12,1,1.3s4.26-2.92,7-4.48a29,29,0,0,1,7.92-3.17,15.86,15.86,0,0,1,9,.34c3.8,1.16,8.77,3.71,15.53,7s15.29,7.4,22.48,12,13,9.6,18.44,12.64a49.66,49.66,0,0,0,12.83,4.7c2.41.65,2.22.9,1.64,1.24a7.94,7.94,0,0,0-1.8,1.1c-.25.35.24.62,1.73.23s4-1.45,5.16-1.82,1.07-.07,1,.27,0,.7.4.85a2.2,2.2,0,0,0,1.9-.38,26.72,26.72,0,0,1,5.4-4c4.19-2.55,12-6.72,19.45-10.49s14.37-7.16,17.42-10.5,2.21-6.61,1.5-8.93S163.7,140.46,160.89,140.75Z" transform="translate(-16.53 -9.86)"/><path class="cls-2" d="M174.69,281.93c-1.38,7.06-4,20.09-5.17,27a74.49,74.49,0,0,0-1,8.55,15.43,15.43,0,0,1-1.48,2.54c-.56,1-.93,2.35-2.77,2.71s-5.16-.23-6.21-1.52.15-3.25,1.11-4.69a24,24,0,0,0,2.61-4.43,73.15,73.15,0,0,0,3.16-9.36c1.09-3.95,2.13-8.54,3.13-13.39a115.75,115.75,0,0,1,3.17-13.32c1.2-3.38,2.63-5,3.51-5.28s1.21.82,1.31,1.91S176.07,274.87,174.69,281.93Z" transform="translate(-16.53 -9.86)"/><path class="cls-3" d="M225.94,278.73c-.18,3.11-.18,7.67-.47,13.45s-.86,12.78-1.57,17.15-1.58,6.1-2.76,7.7-2.68,3.08-3.43,4.34a5,5,0,0,0-.72,3,2.31,2.31,0,0,0,.41,1.51c.29.34.81.55,3.14.64s6.46.06,10.54.06,8.11,0,10.73-.23,3.84-.81,4-1.72-.83-2.18-2.27-3.42-3.37-2.46-5.34-4.13a20.43,20.43,0,0,1-5.22-6.33c-1.26-2.53-1.76-5.49-2-10.53s-.25-12.17-.18-16.89.22-7-.42-8.47-2.08-2-3-1.48S226.12,275.62,225.94,278.73Z" transform="translate(-16.53 -9.86)"/><path class="cls-2" d="M167.65,311.85c-1.17-.8-3.6-.57-5,.47s-1.84,2.88-4.34,4-7.07,1.43-10.36,1a19.55,19.55,0,0,1-7.13-2.49c-1.86-.92-3.59-1.61-5.18-1.43s-3,1.24-3.06,2.39,1.3,2.41,3.2,3.08,4.38.75,3.55.52-5-.76-7.59-1.55-3.7-1.82-4.78-1.09-2.15,3.24-1.82,5.2,2.07,3.37,7.52,4.14a83.6,83.6,0,0,0,20.61,0c6-.92,8.85-2.9,11.18-2.93s4.15,1.86,7.26,2.91,7.5,1.25,9.1-.36.42-5-1.71-6.37-5.19-.68-7.09-.84a2.93,2.93,0,0,1-2.94-2.59C168.73,314.47,168.82,312.64,167.65,311.85Z" transform="translate(-16.53 -9.86)"/><path class="cls-3" d="M159.77,315.41a21,21,0,0,1-3.68,1.23,24.69,24.69,0,0,1-6.83.41,22.64,22.64,0,0,1-6.13-1.4c-1.62-.62-2.7-1.31-3.8-1.77a8.94,8.94,0,0,0-3.13-.71,4,4,0,0,0-2.51.65,4.77,4.77,0,0,0-1.92,2.22,2.16,2.16,0,0,0,.53,1.94c.35.44.63.61,1.82.87a37.24,37.24,0,0,0,5.54.69,47.33,47.33,0,0,0,7.3-.31,50,50,0,0,0,7.41-1.33,19.45,19.45,0,0,0,4.42-1.78C159.73,315.6,160.19,315.25,159.77,315.41Z" transform="translate(-16.53 -9.86)"/><path class="cls-2" d="M225.45,319h-8.86a4.09,4.09,0,0,0-4.28,3.85h0a4.1,4.1,0,0,0,4.28,3.85h8.86a4.1,4.1,0,0,0,4.29-3.85h0A4.1,4.1,0,0,0,225.45,319Z" transform="translate(-16.53 -9.86)"/><path class="cls-2" d="M245,318.84h-8.86a4.1,4.1,0,0,0-4.29,3.85h0a4.1,4.1,0,0,0,4.29,3.85H245a4.1,4.1,0,0,0,4.28-3.85h0A4.09,4.09,0,0,0,245,318.84Z" transform="translate(-16.53 -9.86)"/><path class="cls-4" d="M226.77,237.69c4.74,3.67,12.12,10.52,17.56,15.13a105.6,105.6,0,0,0,11.57,8.69c2.63,1.7,4.39,2.73,5.16,3.88a2.42,2.42,0,0,1-.33,3.23c-.87.82-2.41,1.19-5,.31a68.79,68.79,0,0,1-6.53-3,54.55,54.55,0,0,1,5.13,4.09c1.94,2,2.46,3.8,1.41,4.95s-3.66,1.61-6.58.28-6.16-4.46-6.44-4.55,2.41,2.88,3.21,4.63-.3,2.29-2.39,2.24a13.79,13.79,0,0,1-8.33-3.27c-3.17-2.58-6.45-7.09-10.26-12.82s-8.16-12.67-9.43-17.6S216,236,218,234.77,222,234,226.77,237.69Z" transform="translate(-16.53 -9.86)"/><path class="cls-5" d="M220,146c-.9-5.1,0-5,1.24-4.87a6.34,6.34,0,0,1,4.63,2.37c1.61,1.95,3.11,5.62,6.05,12.26s7.29,16.28,11.91,26.87,9.47,22.16,12.26,29.67,3.51,11,3.37,13.84-1.15,5.1-3.26,8.12a71.82,71.82,0,0,1-8.08,9.47c-2.76,2.67-5,4.21-6.44,3.57s-1.9-3.47-4.33-16.44-6.79-36.09-10.3-52.79S220.94,151.07,220,146Z" transform="translate(-16.53 -9.86)"/><path class="cls-3" d="M175.64,276.71a8.44,8.44,0,0,1-.24,1.28,2.64,2.64,0,0,1-1,1.55,13.18,13.18,0,0,1-2.72,1.5,3.45,3.45,0,0,1-1.41.35c-.23,0-.34-.06-.39-.12s0-.13.12-.69.41-1.62.62-2.36a2.67,2.67,0,0,1,.72-1.51,3.15,3.15,0,0,1,1.67-.6,6.17,6.17,0,0,1,1.69.12,6.43,6.43,0,0,1,.77.16C175.59,276.42,175.65,276.44,175.64,276.71Z" transform="translate(-16.53 -9.86)"/><path class="cls-6" d="M143.4,199.88c-.14,2.26-.39,6.07-.23,11.38a131,131,0,0,0,2,18.82A107.61,107.61,0,0,0,150.73,250a140.58,140.58,0,0,0,8,17c2.26,4,3.54,5.46,5,6.74a17.54,17.54,0,0,0,4.86,3,10.55,10.55,0,0,0,4.79.71,8.29,8.29,0,0,0,4.58-1.7,14.44,14.44,0,0,0,3.47-4.37,19.61,19.61,0,0,0,1.5-4.59c.54-2.06,1.4-5.08,2.08-7.13a17.48,17.48,0,0,1,1.87-4.23,7.09,7.09,0,0,1,3.06-2.88c1.5-.7,3.63-1,2.19-2.55s-6.44-4.21-13.49-11.27a211.85,211.85,0,0,1-21.53-26.46c-5.4-8-7.12-12.46-8.76-14.55s-3.23-1.78-4-1.28S143.54,197.63,143.4,199.88Z" transform="translate(-16.53 -9.86)"/><path class="cls-7" d="M236.7,210.48c2-1.78,4.2-4.57,5.3-5.22s1.11.84,1.52,3.3a106.27,106.27,0,0,1,1.66,11.11,111,111,0,0,1-.17,19.21,129,129,0,0,1-3.57,19.29,74.47,74.47,0,0,1-4.69,13.71c-1.72,3.5-3.65,5.94-5.69,7.32a8.05,8.05,0,0,1-6.47,1.22c-2.29-.48-4.72-1.76-8.23-5.46s-8.08-9.79-11.4-13.88a93.69,93.69,0,0,0-6.8-7.6c-1.39-1.41-2.11-2.15,3.47-8.65s17.45-18.76,24.32-25.28S234.68,212.26,236.7,210.48Z" transform="translate(-16.53 -9.86)"/><path class="cls-8" d="M156,144.94c-.95-.23-2.33.23-4.29.93s-4.49,1.65-7.09,2.58-5.27,1.84-8.22,2.63a40.66,40.66,0,0,1-8.77,1.51,11.74,11.74,0,0,1-6.61-1.66,36.17,36.17,0,0,1-6.06-4.81c-2-1.82-3.8-3.64-5.8-5.48s-4.17-3.7-6-5.07a15.41,15.41,0,0,0-4.33-2.48c-1-.24-1.39.13-.35,1.39s3.52,3.41,4.72,4.53,1.11,1.2-1.49.68-7.72-1.63-11.06-2-4.9.13-4.37,1,3.15,2,6,3a78.93,78.93,0,0,0,8,2.13c1.91.42,2.56.5.28.62a95.43,95.43,0,0,0-10.25.83c-2.76.54-3.08,1.45-2.72,2.05s1.43.88,4.38,1.07,7.78.27,8.79.57-1.83.82-5,1.78-6.51,2.39-7.21,3.22,1.29,1.06,4.6.76,7.94-1.14,10.43-1.59a17.24,17.24,0,0,1,2.87-.45c.05,0-.2.17-.87.52s-1.75.92-4,2-5.61,2.64-6.39,3.57,1.08,1.22,4.14.65a90.75,90.75,0,0,0,9.68-2.72c2.34-.75,2.73-.82,2.81-.69s-.15.46-.82,1.16a24,24,0,0,0-2.58,2.91c-.8,1.13-1.27,2.34-.07,2.28s4.08-1.38,6.22-2.46,3.55-1.9,4.18-2.21.51-.13-.36.91-2.45,2.93-2.61,4.15,1.12,1.77,2.32,1.6a7.86,7.86,0,0,0,3.57-2.05c1.23-1,2.56-2.14,3.11-2.46s.3.18-.06.88-.87,1.57-1.28,2.52-.75,2-.11,2.3,2.27,0,4-1.21a29.27,29.27,0,0,0,4.47-4.15c1-1,1.08-1.15,1.15-.66s.1,1.58.26,2.66.46,2.13,1.58,1.83,3.05-2,4.15-3.22a6.88,6.88,0,0,0,1.59-2.75c.21-.62.35-1,.43-.64s.1,1.43.29,2.3.53,1.53,1.16,1.11a9.44,9.44,0,0,0,2.1-3,15.9,15.9,0,0,0,.91-2.61c.21-.67.46-1.22.47-.4s-.2,3,.27,3.71,1.63-.07,2.53-.91a20.34,20.34,0,0,0,2.09-2.43,9.3,9.3,0,0,1,1.92-1.88,21.55,21.55,0,0,0,3.22-2.69,5.36,5.36,0,0,0,1.45-3.39A2.1,2.1,0,0,0,156,144.94Z" transform="translate(-16.53 -9.86)"/><path class="cls-7" d="M224.34,236.21c-4.65,5.14-9.37,9.76-13.59,12.52a23.84,23.84,0,0,1-11.8,4,32.31,32.31,0,0,1-12-1.15,52.6,52.6,0,0,1-12.38-5.85,63,63,0,0,1-11-8.54,111.56,111.56,0,0,1-9.66-11,56.36,56.36,0,0,1-6.15-9.11,38.44,38.44,0,0,1-3-8.67,39.39,39.39,0,0,1-1.21-10.08c.07-3.86.78-8.35,2.07-15.22s3.15-16.12,5.58-25.3,5.44-18.3,8.08-26.84,4.94-16.5,7.59-26,5.65-20.55,7.94-29.66,3.86-16.31,6.15-25,5.29-19,8.08-25.62,5.37-9.57,8.37-11.49A21.85,21.85,0,0,1,207,10a24.15,24.15,0,0,1,9.28.82,21.93,21.93,0,0,1,8.3,4.3,16.55,16.55,0,0,1,4.22,6.62,20.23,20.23,0,0,1,1.5,9.37,119.32,119.32,0,0,1-2.7,17.42c-1.36,6.36-2.93,12.52-4.58,20.23s-3.36,17-4.72,24.2S216,105.48,216,112.15a105.62,105.62,0,0,0,3.44,23.7,244.14,244.14,0,0,0,9.08,28c3.58,9.32,7.44,18.18,9.94,25a83.94,83.94,0,0,1,4.22,14.9c.58,3.34.58,5.27-.28,7.71s-2.58,5.39-5.73,9.69S229,231.07,224.34,236.21Z" transform="translate(-16.53 -9.86)"/><path class="cls-6" d="M178.75,126.68a1.77,1.77,0,0,0,.34.9c.21.24.55.24,1.38.13s2.17-.32,3.19-.53a12.47,12.47,0,0,0,2.39-.69c.66-.29,1.28-.66,1.7-.89a3.31,3.31,0,0,1,.78-.36.9.9,0,0,1,.44.06,7.14,7.14,0,0,0,1,.14l1.53.07a.74.74,0,0,1,.63.24c.18.19.49.52.82.82a10,10,0,0,0,1.12.86,12.64,12.64,0,0,0,1.47.88c.61.32,1.38.66,2,.92a10.38,10.38,0,0,0,1.4.5c.33.07.55.06.72-.11s.27-.49.11-.63-.55-.13-1-.21a6.82,6.82,0,0,1-1.54-.52,15.41,15.41,0,0,1-1.73-.92,12.41,12.41,0,0,1-1.58-1.16c-.45-.41-.79-.81-1.1-1.1a2.12,2.12,0,0,0-1.33-.57,18.38,18.38,0,0,0-2.75-.17,2.28,2.28,0,0,0-1.39.43c-.46.28-1.19.72-1.81,1a7,7,0,0,1-1.86.62,16.23,16.23,0,0,1-2.58.33,8.17,8.17,0,0,1-1.89-.13C178.78,126.54,178.73,126.48,178.75,126.68Z" transform="translate(-16.53 -9.86)"/><path class="cls-9" d="M201.39,123.49s0,.05,0,.09l-.08.62c0,.19-.05.37-.08.55a19.19,19.19,0,0,1-.76,3,5.68,5.68,0,0,1-.7,1.47c-.05,0-.15,0-.23,0-.38-.09-1.53-.56-1.88-.7-.87-.37-1.8-.78-2.62-1.21a14.73,14.73,0,0,1-2.68-2.14c-.09-.08-.54-.55-.59-.58,0,.14-.23.27-.39.25a4.28,4.28,0,0,0-.85-.16,5.18,5.18,0,0,1-.79,0c-.9-.12-.94-.44-1.47-.1l-.18.12c-.14.1-1.59.89-1.76,1a7,7,0,0,1-.84.35,15.72,15.72,0,0,1-2.84.7l-1.52.23c-.42,0-1.18.11-1.59.14a1.12,1.12,0,0,1-.55,0c-.3-.23-.33-.94-.34-1.3a24.25,24.25,0,0,1,.14-3.17c.06-.38.09-.76.14-1.13l.14-.8a10.88,10.88,0,0,1,.35-1.59,18,18,0,0,1,.7-1.82,2.78,2.78,0,0,1,.47-.77c.13-.13.23-.12.45,0a24.59,24.59,0,0,1,3.4,1.71c.64.42,1.24.83,1.85,1.25l1.46,1c.42.29.9.57,1.34.86l.19.11a1.11,1.11,0,0,0,.11-.16.86.86,0,0,1,.14-.13,1,1,0,0,1,.8-.18c.15,0,.09,0,.23,0a1.09,1.09,0,0,1,.64.13c.17.09.28-.08.64.16.06,0,.07.07.13.06l4.17-1.52a15,15,0,0,1,2.38-.74,7.71,7.71,0,0,1,2.07-.21c.35,0,.81.15.87.49s0,1.28,0,1.56c0,.58,0,1.34,0,1.93A5.34,5.34,0,0,1,201.39,123.49Z" transform="translate(-16.53 -9.86)"/><path class="cls-6" d="M194.81,35a4.19,4.19,0,0,1-.49.58,2.43,2.43,0,0,1-.91.51,2.72,2.72,0,0,1-1.13.1,2.08,2.08,0,0,1-1-.4,2.91,2.91,0,0,1-.79-.95,2.55,2.55,0,0,1-.23-1c0-.26,0-.43,0-.36a2.83,2.83,0,0,0-.34.86,3,3,0,0,0,0,1.68,2.22,2.22,0,0,0,1.37,1.23,3.31,3.31,0,0,0,2,0,2.15,2.15,0,0,0,1.22-1.08A3.53,3.53,0,0,0,195,35C195,34.81,194.92,34.89,194.81,35Z" transform="translate(-16.53 -9.86)"/><path class="cls-4" d="M195.54,25.29h0a2.62,2.62,0,0,0-3,1.57l-2.19,6.71A2.07,2.07,0,0,0,192,36.19h0a2.59,2.59,0,0,0,3-1.56l2.2-6.71A2.09,2.09,0,0,0,195.54,25.29Z" transform="translate(-16.53 -9.86)"/><path class="cls-10" d="M193.27,27.67a2.25,2.25,0,0,1,.49-.7.79.79,0,0,1,.6-.25c.2,0,.39.21.32.64a4.17,4.17,0,0,1-.73,1.5c-.31.39-.58.49-.77.45s-.3-.22-.27-.54A4.16,4.16,0,0,1,193.27,27.67Z" transform="translate(-16.53 -9.86)"/><path class="cls-11" d="M197.32,15.78a15.73,15.73,0,0,1,4.09-.42,13.94,13.94,0,0,1,4.37.87c1.12.45,1.7,1,1.76,1.59a1.45,1.45,0,0,1-1.08,1.42,5,5,0,0,1-2.6-.44,21.36,21.36,0,0,0-4.09-1c-1.6-.19-3.44-.12-4.31-.27s-.76-.52-.35-.85A5.88,5.88,0,0,1,197.32,15.78Z" transform="translate(-16.53 -9.86)"/><path class="cls-7" d="M220.6,21.07c.92.11,1.87,1.12,3.29,1.68a10.83,10.83,0,0,0,5.15.46c1.84-.23,3.61-.82,4.45-.89s.75.35.36,1a23.46,23.46,0,0,1-1.58,2.26,13.1,13.1,0,0,1-1,1.14c-.2.21-.31.3.25.34a10.64,10.64,0,0,0,3-.26A17.6,17.6,0,0,0,238,25.49c.9-.44,1.47-.71,1.43,0a7.33,7.33,0,0,1-2,3.71,19,19,0,0,1-5.06,3.48,5.84,5.84,0,0,1-5.39.54,20,20,0,0,1-7.19-5.1,5.22,5.22,0,0,1-1.29-5C218.82,21.75,219.69,21,220.6,21.07Z" transform="translate(-16.53 -9.86)"/><path class="cls-6" d="M196.43,47.09c-.37.09-.93.33-1.68.56a19.11,19.11,0,0,1-2.65.64,16.16,16.16,0,0,1-3.14.21,20,20,0,0,1-3.6-.44,14,14,0,0,1-2.41-.81c-.51-.21-.68-.29-.75-.15a.84.84,0,0,0,.29.81,4.21,4.21,0,0,0,1.94.88,21.32,21.32,0,0,0,4.07.55,22.3,22.3,0,0,0,4-.26,17.73,17.73,0,0,0,2.63-.57,4.79,4.79,0,0,0,1.48-.68c.3-.24.41-.49.38-.64S196.8,47,196.43,47.09Z" transform="translate(-16.53 -9.86)"/><ellipse class="cls-12" cx="173.03" cy="24.22" rx="15.99" ry="14.36"/><path class="cls-6" d="M223.59,41.72a3.59,3.59,0,0,1-.49.58,2.38,2.38,0,0,1-.9.51,2.6,2.6,0,0,1-1.14.1,1.9,1.9,0,0,1-1-.4,2.79,2.79,0,0,1-.79-.95,2.22,2.22,0,0,1-.23-1c0-.27,0-.43,0-.36a2.55,2.55,0,0,0-.33.85,3,3,0,0,0,0,1.69A2.23,2.23,0,0,0,220.1,44a3.38,3.38,0,0,0,2,0,2.22,2.22,0,0,0,1.23-1.07,3.73,3.73,0,0,0,.4-1.22C223.8,41.5,223.71,41.57,223.59,41.72Z" transform="translate(-16.53 -9.86)"/><path class="cls-4" d="M223.41,31.76h0a2.31,2.31,0,0,1,1.9,2.65l-1.5,6.86A2.33,2.33,0,0,1,221,42.91h0a2.32,2.32,0,0,1-1.9-2.65l1.5-6.86A2.33,2.33,0,0,1,223.41,31.76Z" transform="translate(-16.53 -9.86)"/><path class="cls-10" d="M221.23,34.31a2,2,0,0,0-.17.81.65.65,0,0,0,.25.55c.18.1.46.08.72-.28a4,4,0,0,0,.59-1.55c.06-.48-.06-.71-.23-.8s-.39,0-.6.23A4,4,0,0,0,221.23,34.31Z" transform="translate(-16.53 -9.86)"/><path class="cls-11" d="M227.28,22.57a13.9,13.9,0,0,0-3.42-2.07,14.25,14.25,0,0,0-4.32-1c-1.23-.06-2,.19-2.38.69a1.31,1.31,0,0,0,.23,1.7,4.85,4.85,0,0,0,2.53.69,21.45,21.45,0,0,1,4.15.79c1.52.49,3.12,1.31,4,1.54s.94-.15.75-.62A5.18,5.18,0,0,0,227.28,22.57Z" transform="translate(-16.53 -9.86)"/><path class="cls-6" d="M225.15,56.53c-.54-.09-1.76-.12-2.82-.22a13.64,13.64,0,0,1-3-.64,23,23,0,0,1-3.31-1.4,16.27,16.27,0,0,1-2.29-1.46c-.56-.43-.92-.76-1.08-.9s-.09-.07-.23.52-.49,1.74-1.11,3.66-1.52,4.64-2.34,6.54a13,13,0,0,1-2.3,3.83,8.82,8.82,0,0,1-2.48,1.91,14.7,14.7,0,0,1-2.71,1.06c-.73.2-1.15.22-1.25.27s.1.14.92.15a9.08,9.08,0,0,0,3.71-.71,9.94,9.94,0,0,0,4-3.4,23,23,0,0,0,2.34-5.11c.61-1.65,1.17-3.05,1.57-3.92s.66-1.2,1-1.28a4.16,4.16,0,0,1,1.79.41,21.85,21.85,0,0,0,3.66,1,26.34,26.34,0,0,0,4.37.36,3.27,3.27,0,0,0,1.68-.28C225.56,56.77,225.7,56.62,225.15,56.53Z" transform="translate(-16.53 -9.86)"/><ellipse class="cls-12" cx="207.86" cy="32.31" rx="15.99" ry="14.36"/><path class="cls-3" d="M211.59,55.3a40.79,40.79,0,0,1-2.94,8.63,9.94,9.94,0,0,1-4.32,4.54,8.07,8.07,0,0,1-4.88,1.15,6.37,6.37,0,0,1-3.84-2.69A9.38,9.38,0,0,1,193.7,61,40.18,40.18,0,0,1,195,52c.6-2.35,1.06-3.16,1.63-3.39s1.28.13,3.7.61,6.55,1.08,8.78,1.38,2.53.29,2.73.79S212.11,52.91,211.59,55.3Z" transform="translate(-16.53 -9.86)"/><path class="cls-4" d="M208.93,52.08c1.86,2.07.64,5.14-.58,7.3a12.11,12.11,0,0,1-3.83,4.3,6.1,6.1,0,0,1-4.07,1.3,4.73,4.73,0,0,1-3.06-2.53A10.26,10.26,0,0,1,196,56.93c0-2.48.59-5.77,3.37-6.87S207.06,50,208.93,52.08Z" transform="translate(-16.53 -9.86)"/><path class="cls-2" d="M214.43,44.27c-.47,2.54-1.51,6.61-2.11,8.72s-.76,2.26-1.54,2.73A28.37,28.37,0,0,1,207,57.61a8.64,8.64,0,0,1-4.77.81,7.93,7.93,0,0,1-3.8-2.62,30.24,30.24,0,0,1-2.68-3.25c-.54-.79-.59-1.09-.16-3.22s1.38-6.09,2.07-8.48,1.15-3.2,1.8-3.93a7,7,0,0,1,2.5-1.76,9.91,9.91,0,0,1,3.15-.59,11.56,11.56,0,0,1,2.89.19,11.14,11.14,0,0,1,3,1,8.7,8.7,0,0,1,2.45,1.84,5,5,0,0,1,1.16,2.23A9.91,9.91,0,0,1,214.43,44.27Z" transform="translate(-16.53 -9.86)"/><path class="cls-10" d="M204.82,35.61a2.77,2.77,0,0,0-1.15,0,5.7,5.7,0,0,0-2.42,1.06,4.54,4.54,0,0,0-.94,1,11.17,11.17,0,0,0-.84,1.47c-.2.43-.28.69-.14.66a4.53,4.53,0,0,0,.94-.77A12.59,12.59,0,0,1,202,37.71a16.8,16.8,0,0,1,2.11-1.07,3.22,3.22,0,0,0,1.1-.62C205.3,35.85,205.12,35.69,204.82,35.61Z" transform="translate(-16.53 -9.86)"/><path class="cls-6" d="M203.55,78.46c-.52.45-1.69,1.8-2.89,2.92a18.76,18.76,0,0,1-3.74,2.7c-1.28.69-2.6,1.21-3.2,1.5s-.48.35-.19.63a5.84,5.84,0,0,0,1.5,1.13,8.47,8.47,0,0,0,2.69.71,6.31,6.31,0,0,0,2.05-.08c.43-.11.55-.27,1.11-1.61s1.54-3.83,2.09-5.28.68-1.83.81-2.24S204.06,78,203.55,78.46Z" transform="translate(-16.53 -9.86)"/><path class="cls-6" d="M205.11,131.59a42.17,42.17,0,0,1,3.37,3.68,15.18,15.18,0,0,1,2.14,3.62,4.43,4.43,0,0,1,.43,2.3,1.13,1.13,0,0,1-1,1,4.35,4.35,0,0,1-2.07-.27,5.85,5.85,0,0,1-1.31-.77c-.22-.16-.22-.09-.08.09s.42.49.69.86a3.75,3.75,0,0,1,.68,1.46,3.48,3.48,0,0,1-.07,2.21,2.24,2.24,0,0,1-1.77,1.12,5.31,5.31,0,0,1-2.55-.37,8.3,8.3,0,0,1-2.37-1.42,3.25,3.25,0,0,1-1-1.22c0-.11.46.23,1.16.62a16,16,0,0,0,2.45,1.11,4.68,4.68,0,0,0,2.07.26,1.37,1.37,0,0,0,1.28-.85,3.88,3.88,0,0,0-.4-2.07,10.22,10.22,0,0,0-1-1.9c-.37-.55-.78-1-.71-1.16s.63.12,1.19.37,1.14.48,1.64.64a3.49,3.49,0,0,0,1.31.21c.39,0,.73-.15.79-.59a4.44,4.44,0,0,0-.57-2.09,20.25,20.25,0,0,0-1.69-2.94c-.68-1-1.43-1.94-2.11-2.79s-1.26-1.58-1.43-1.85S204.26,130.76,205.11,131.59Z" transform="translate(-16.53 -9.86)"/><path class="cls-6" d="M173.61,133.32a39.36,39.36,0,0,0-2.76,4.05,15.08,15.08,0,0,0-1.57,3.86,4.43,4.43,0,0,0-.07,2.33,1.17,1.17,0,0,0,1.15.85,4.29,4.29,0,0,0,2-.52,5.58,5.58,0,0,0,1.18-.93c.2-.18.21-.12.1.08s-.35.54-.55.94a3.74,3.74,0,0,0-.46,1.53,3.59,3.59,0,0,0,.41,2.18,2.32,2.32,0,0,0,1.93.89,5.08,5.08,0,0,0,2.47-.69,7.87,7.87,0,0,0,2.13-1.69,3.16,3.16,0,0,0,.83-1.34c0-.11-.42.28-1.05.76a13.85,13.85,0,0,1-2.26,1.4,4.5,4.5,0,0,1-2,.52,1.41,1.41,0,0,1-1.4-.68,3.8,3.8,0,0,1,.07-2.1,9.87,9.87,0,0,1,.67-2c.28-.59.61-1.12.52-1.23s-.6.2-1.12.5-1.05.62-1.52.84a3.54,3.54,0,0,1-1.27.38c-.39,0-.74-.06-.87-.49a4.53,4.53,0,0,1,.23-2.14,19.88,19.88,0,0,1,1.23-3.12c.52-1.07,1.12-2.11,1.66-3s1-1.73,1.13-2S174.33,132.38,173.61,133.32Z" transform="translate(-16.53 -9.86)"/><path class="cls-6" d="M233.64,225.54c-1.34,1.2-3.79,4.21-5.91,6.7s-3.89,4.46-5.46,6.14-3,3.06-4.49,4.5-3.25,2.91-4.68,4a26.78,26.78,0,0,1-3.82,2.58,33.15,33.15,0,0,1-3.88,1.81,19.33,19.33,0,0,1-3.19.91c-1,.2-2.15.35-3.05.45a5.75,5.75,0,0,0-1.7.26c-.14.13.28.34,1.08,1.07s2,2,3.37,3.58,3,3.58,4.05,4.54,1.39.89,2.62.43a26.93,26.93,0,0,0,6.63-3.74,43.34,43.34,0,0,0,11.48-12.15c3.58-5.8,6.15-13.44,7.33-17.56S235,224.34,233.64,225.54Z" transform="translate(-16.53 -9.86)"/><path class="cls-13" d="M190.08,24.54c.76,4.64,2,14,2.58,18.63s.53,4.71.09,4.78-1.29.16-1.89.22-1,.09-1.5-2.85-1.23-8.84-1.61-11.7-.45-2.68-.36-.76.3,5.55.28,6.89-.32.37-.8-3-1.16-9-1.53-12.14-.41-3.54-.23-3.85.6-.46,1.2-.58,1.39-.21,1.83-.25.52,0,.71,0S189.32,19.89,190.08,24.54Z" transform="translate(-16.53 -9.86)"/><path class="cls-13" d="M182.83,26c.55,4.38,1.64,13.08,2.18,17.43s.53,4.35.27,4.28-.77-.22-1-.33-.29-.2-.77-4.39-1.4-12.5-1.86-16.67-.44-4.22-.35-4.29a3,3,0,0,1,.44-.26,2.43,2.43,0,0,1,.49-.21C182.29,21.56,182.29,21.62,182.83,26Z" transform="translate(-16.53 -9.86)"/><path class="cls-13" d="M219.72,33.28c.56,4.54,1.69,13.65,2.28,18.25s.63,4.68.37,4.68a4.46,4.46,0,0,1-1.1-.19c-.3-.1-.33-.21-.85-4.65s-1.51-13.25-2-17.65-.45-4.43-.36-4.48a1.85,1.85,0,0,1,.43-.22c.2-.08.45-.14.57-.19S219.16,28.74,219.72,33.28Z" transform="translate(-16.53 -9.86)"/><path class="cls-4" d="M46.87,142.23c-.47.38-2.23.24-5.36-.74s-7.62-2.82-11.59-4.26-7.41-2.49-9.28-3.17-2.16-1-2-1.36a3.31,3.31,0,0,1,1.87-1.11,9.57,9.57,0,0,1,4.34-.41,28.8,28.8,0,0,1,6.56,2c2.55,1.05,5.48,2.35,7.93,3.54a42.07,42.07,0,0,1,5.8,3.22C46.55,141,47.35,141.86,46.87,142.23Z" transform="translate(-16.53 -9.86)"/><path class="cls-4" d="M62.3,150.2a38.25,38.25,0,0,1-8.22-3.2,54.9,54.9,0,0,1-10.42-6.84,85.64,85.64,0,0,1-8.39-8.32c-1.75-2-2-2.48-1-2.71a13,13,0,0,1,5.69.52,31.45,31.45,0,0,1,7.64,4,91.41,91.41,0,0,1,9.14,6.67,30.36,30.36,0,0,1,5,5.61,17.08,17.08,0,0,1,2.08,3.34C64.11,150.07,64,150.54,62.3,150.2Z" transform="translate(-16.53 -9.86)"/></svg>